# xmcd
#
# Track frame offsets: 
#        150
#        12705
#        25886
#        36516
#        50013
#        60982
#        69528
#        83619
#        99249
#        110485
#        124274
#        134863
#        142958
#        158818
#        171833
#        185409
#        199528
#        215472
#        229542
#        242181
#        256916
#        266900
#        278700
#        292891
#
# Disc length: 4065 seconds
#
# Revision: 0
# Processed by: cddbd v1.5.2PL0 Copyright (c) Steve Scherf et al.
# Submitted via: ExactAudioCopy v1.0b3
#
DISCID=620fdf18
DTITLE=The Louvin Brothers - Complete Recorded Works 1952-62 CD6
DYEAR=2014
DGENRE=Country
TTITLE0=O Come All Ye Faithful
TTITLE1=Silent Night
TTITLE2=Away In A Manger
TTITLE3=Good Christian Men Rejoice
TTITLE4=While Shepherds Watched Their Flocks
TTITLE5=Deck The Halls
TTITLE6=It Came Upon A Midnight Clear
TTITLE7=The First Noel
TTITLE8=O Little Town Of Bethlehem
TTITLE9=The Friendly Beasts
TTITLE10=Hark! The Herald Angels Sing
TTITLE11=Joy To The World
TTITLE12=The Weapon Of Prayer
TTITLE13=There's A Grave In The Wave Of The Ocean
TTITLE14=At Mail Call Today
TTITLE15=I Died For The Red White And Blue 
TTITLE16=A Soldier's Last Letter
TTITLE17=There's A Star Spangled Banner Waving Somewhere
TTITLE18=The Great Atomic Power
TTITLE19=A Seaman's Girl
TTITLE20=From Mother's Arms To Korea
TTITLE21=Robe Of White
TTITLE22=Searching For A Soldier's Grave
TTITLE23=Mother I Thank You For The Bible You Gave
EXTD=
EXTT0=
EXTT1=
EXTT2=
EXTT3=
EXTT4=
EXTT5=
EXTT6=
EXTT7=
EXTT8=
EXTT9=
EXTT10=
EXTT11=
EXTT12=
EXTT13=
EXTT14=
EXTT15=
EXTT16=
EXTT17=
EXTT18=
EXTT19=
EXTT20=
EXTT21=
EXTT22=
EXTT23=
PLAYORDER=
